<svg width="256" height="256" viewBox="0 0 256 256" fill="none" xmlns="http://www.w3.org/2000/svg">
<g clip-path="url(#clip0_38_149)">
<rect width="256" height="256" rx="4" fill="#F8F8EF"/>
<path d="M225.884 20.8483C221.294 16.2581 215.951 11.9854 209.601 10.1711C206.419 9.26183 203.303 8.21306 199.991 8.30257C196.179 8.40561 192.321 9.00045 188.513 9.10337C185.42 9.18697 182.377 10.56 179.571 11.6392C176.227 12.9254 173.898 15.6421 170.659 17.0816C169.399 17.6414 167.963 18.6372 166.892 19.5137C165.662 20.5202 164.076 20.8471 162.888 21.9161C161.255 23.3855 159.01 24.1929 157.401 25.8014C156.472 26.7307 155.542 27.66 154.613 28.5894C152.572 30.6309 150.53 32.6724 148.489 34.7139C146.261 36.9418 145.05 39.7211 144.084 42.6181C141.965 48.9766 140.466 56.3123 140.466 63.0235C140.466 70.497 142.97 77.7933 145.004 84.9119C145.787 87.6536 146.697 90.4958 147.614 93.2461C148.475 95.8293 149.842 99.4226 151.677 101.462C153.692 103.701 155.747 106.065 157.95 108.268C160.118 110.437 162.416 111.318 165.29 112.139C166.083 112.365 167.211 112.738 167.96 112.821C169.234 112.963 170.527 113.759 171.697 113.889C174.271 114.175 176.959 113.49 179.497 114.215C186.611 116.248 194.024 115.148 200.659 112.005C206.972 109.015 212.982 105.287 217.876 100.394C220.634 97.6356 223.392 94.8773 226.151 92.119C228.914 89.3554 230.757 85.9112 233.477 83.1916C235.95 80.7179 237.629 76.9035 238.37 73.4931C238.999 70.5993 240.394 67.802 240.565 64.892C241.048 56.6779 240.329 47.8429 236.947 40.1564C236.126 38.2923 235.499 36.3542 234.426 34.6101C233.769 33.5436 233.418 32.2398 232.824 31.1104C232.308 30.1297 231.474 29.4038 230.955 28.4707C229.38 25.635 228.161 22.0578 225.884 19.7806" stroke="black" stroke-width="6.66005" stroke-linecap="round"/>
<path d="M141.267 69.6967C138.439 72.5245 133.325 72.4935 129.937 74.6497C128.278 75.7056 126.029 75.641 124.45 76.9038C122.985 78.0757 120.182 78.7184 118.37 79.3655C113.003 81.2824 108.542 85.4499 103.748 88.5005C98.3311 91.9476 93.262 96.1173 87.8212 99.5337C79.7897 104.577 72.5393 110.663 65.7845 117.418C64.442 118.761 62.7241 119.945 61.306 121.363C60.3397 122.329 56.8934 124.789 56.7681 126.167C56.6014 128.002 54.575 129.76 54.514 131.892C54.464 133.643 53.7172 135.9 55.0479 137.23" stroke="black" stroke-width="6.66005" stroke-linecap="round"/>
<path d="M183.441 116.676C181.123 118.995 181.058 121.687 179.437 124.388C178.174 126.494 177.536 128.982 176.709 131.298C174.787 136.68 171.907 141.771 169.62 147.047C167.274 152.462 164.324 157.988 160.218 162.322C157.82 164.853 156.117 168.024 153.664 170.478C152.74 171.402 152.172 172.748 151.395 173.785C150.42 175.085 148.915 175.935 148.103 177.374C146.809 179.662 144.134 181.609 142.275 183.468C140.826 184.917 139.378 186.365 137.93 187.814C135.171 190.572 132.413 193.33 129.655 196.088C127.094 198.649 124.481 202.267 121.113 203.562C119.343 204.243 117.282 204.432 115.433 203.904C114.492 203.635 111.71 202.159 111.103 202.361" stroke="black" stroke-width="6.66005" stroke-linecap="round"/>
<path d="M151.944 156.183C147.357 160.77 142.77 165.357 138.182 169.944C133.681 174.446 130.255 180.007 125.785 184.477C121.809 188.453 118.08 192.716 114.144 196.652C111.044 199.752 107.945 202.851 104.846 205.951C103.513 207.283 101.712 208.017 100.367 209.361C97.7308 211.998 94.1524 213.441 91.4842 216.109C88.7496 218.843 84.9282 220.734 82.0675 223.39C78.7653 226.456 74.0771 228.095 70.278 230.375C68.949 231.172 67.5215 231.732 66.1406 232.377C64.8442 232.982 63.3667 232.807 62.107 233.326C56.9921 235.432 49.9422 229.903 50.2433 224.784C50.4154 221.858 52.4805 219.316 53.8173 216.91C55.02 214.745 56.6753 211.946 58.5182 210.103C61.1999 207.421 63.6164 204.036 65.6067 200.908C67.5909 197.79 70.2453 195.235 71.9834 191.951C73.7039 188.702 77.7409 180.737 71.8055 179.198C68.3496 178.302 64.7023 181.202 62.0921 183.009C59.5111 184.796 56.7306 186.799 54.5143 189.015C53.6505 189.879 51.5904 190.92 50.451 191.358C48.8914 191.958 47.5523 193.636 45.9725 194.087C42.9237 194.958 40.4831 198.062 37.3713 199.099C36.1334 199.512 34.9023 200.014 33.6343 200.404C32.2595 200.827 31.3706 200.484 30.09 200.627C27.4645 200.918 24.1677 196.573 22.5418 194.947C18.1238 190.529 20.8654 182.911 24.351 178.605C27.7265 174.435 30.9006 170.454 34.7317 166.623C37.7201 163.634 39.8864 159.866 42.7693 156.983C45.0107 154.742 47.0401 152.301 49.1756 150.043C51.3089 147.788 52.9843 145.167 55.1816 142.97C60.3083 137.843 65.6758 133.009 70.7971 127.888C76.2845 122.4 82.7185 118.102 88.2069 112.614C90.5095 110.311 93.5481 108.874 95.7551 106.667C96.9113 105.511 101.116 100.268 102.295 100.661" stroke="black" stroke-width="6.66005" stroke-linecap="round"/>
</g>
<defs>
<clipPath id="clip0_38_149">
<rect width="256" height="256" rx="4" fill="white"/>
</clipPath>
</defs>
</svg>
