<svg width="1072" height="460" viewBox="0 0 1072 460" fill="none" xmlns="http://www.w3.org/2000/svg">
<rect width="1072" height="460" fill="#1A1A1A"/>
<path d="M147.332 271.262C146.23 269.609 145.679 268.024 145.679 266.509C145.817 264.856 146.712 263.547 148.365 262.583C149.468 261.618 150.707 261.205 152.085 261.343C153.6 261.481 154.978 262.169 156.218 263.409C159.938 268.231 164.415 272.157 169.65 275.188C175.023 278.081 181.36 279.528 188.661 279.528C192.518 279.528 196.307 278.908 200.026 277.668C203.884 276.29 207.052 274.293 209.532 271.675C212.012 268.92 213.252 265.476 213.252 261.343C213.252 257.072 212.012 253.628 209.532 251.011C207.052 248.393 203.815 246.327 199.82 244.811C195.962 243.296 191.83 241.987 187.421 240.885C182.737 239.645 178.191 238.268 173.783 236.752C169.374 235.099 165.448 233.102 162.004 230.76C158.698 228.28 156.011 225.318 153.945 221.874C151.878 218.43 150.845 214.228 150.845 209.269C150.845 203.483 152.429 198.385 155.598 193.977C158.767 189.568 163.037 186.124 168.41 183.645C173.92 181.165 180.12 179.925 187.008 179.925C190.452 179.925 194.172 180.407 198.167 181.372C202.162 182.198 206.088 183.645 209.945 185.711C213.803 187.778 217.247 190.602 220.278 194.184C221.517 195.423 222.137 196.87 222.137 198.523C222.137 200.038 221.449 201.416 220.071 202.656C218.969 203.483 217.66 203.896 216.145 203.896C214.767 203.896 213.596 203.345 212.632 202.243C209.325 198.523 205.399 195.699 200.853 193.77C196.307 191.842 191.416 190.877 186.181 190.877C182.186 190.877 178.398 191.566 174.816 192.944C171.372 194.184 168.479 196.112 166.137 198.73C163.795 201.347 162.624 204.791 162.624 209.062C162.899 213.057 164.277 216.294 166.757 218.774C169.374 221.254 172.749 223.32 176.882 224.974C181.153 226.627 185.906 228.142 191.141 229.52C195.549 230.622 199.751 231.931 203.746 233.446C207.879 234.961 211.461 236.89 214.492 239.232C217.66 241.436 220.14 244.26 221.931 247.704C223.859 251.148 224.824 255.488 224.824 260.723C224.824 266.785 223.102 272.02 219.658 276.428C216.351 280.836 211.874 284.212 206.226 286.553C200.578 288.895 194.309 290.066 187.421 290.066C179.982 290.066 172.749 288.62 165.724 285.727C158.835 282.834 152.705 278.012 147.332 271.262ZM308.67 181.578C317.349 181.578 324.375 183.438 329.747 187.158C335.12 190.877 339.046 195.906 341.526 202.243C344.144 208.58 345.452 215.606 345.452 223.32V281.801C345.452 283.454 344.832 284.9 343.593 286.14C342.353 287.38 340.906 288 339.253 288C337.324 288 335.809 287.38 334.707 286.14C333.605 284.9 333.054 283.454 333.054 281.801V223.32C333.054 217.672 332.158 212.575 330.367 208.029C328.714 203.483 325.959 199.901 322.102 197.283C318.244 194.528 313.078 193.15 306.603 193.15C300.817 193.15 295.307 194.528 290.072 197.283C284.974 199.901 280.842 203.483 277.673 208.029C274.505 212.575 272.92 217.672 272.92 223.32V281.801C272.92 283.454 272.3 284.9 271.06 286.14C269.821 287.38 268.374 288 266.721 288C264.792 288 263.277 287.38 262.175 286.14C261.073 284.9 260.522 283.454 260.522 281.801V141.283C260.522 139.629 261.073 138.183 262.175 136.943C263.415 135.703 264.93 135.083 266.721 135.083C268.512 135.083 269.958 135.703 271.06 136.943C272.3 138.183 272.92 139.629 272.92 141.283V208.235L268.167 215.468C268.443 211.197 269.752 207.064 272.094 203.069C274.573 198.936 277.742 195.286 281.599 192.117C285.457 188.811 289.727 186.262 294.411 184.471C299.095 182.543 303.848 181.578 308.67 181.578ZM474.886 182.405C476.677 182.405 478.123 183.025 479.225 184.265C480.465 185.504 481.085 187.02 481.085 188.811V281.801C481.085 283.454 480.465 284.9 479.225 286.14C477.986 287.38 476.539 288 474.886 288C473.095 288 471.58 287.38 470.34 286.14C469.238 284.9 468.687 283.454 468.687 281.801V257.21L472.2 255.557C472.2 259.414 471.097 263.34 468.893 267.336C466.827 271.331 463.934 275.05 460.214 278.494C456.495 281.938 452.086 284.763 446.989 286.967C442.029 289.033 436.657 290.066 430.871 290.066C421.503 290.066 413.099 287.656 405.66 282.834C398.359 278.012 392.573 271.4 388.302 262.996C384.169 254.593 382.103 245.156 382.103 234.686C382.103 223.94 384.238 214.504 388.509 206.376C392.779 198.11 398.565 191.635 405.867 186.951C413.168 182.267 421.434 179.925 430.664 179.925C436.588 179.925 442.098 180.958 447.196 183.025C452.431 185.091 456.977 187.915 460.834 191.497C464.691 195.079 467.653 199.212 469.72 203.896C471.924 208.442 473.026 213.195 473.026 218.154L468.687 215.055V188.811C468.687 187.02 469.238 185.504 470.34 184.265C471.58 183.025 473.095 182.405 474.886 182.405ZM431.904 278.494C439.205 278.494 445.68 276.635 451.328 272.915C456.977 269.058 461.385 263.823 464.554 257.21C467.86 250.46 469.513 242.952 469.513 234.686C469.513 226.558 467.86 219.256 464.554 212.782C461.385 206.307 456.977 201.141 451.328 197.283C445.68 193.426 439.205 191.497 431.904 191.497C424.74 191.497 418.265 193.357 412.479 197.077C406.831 200.796 402.354 205.893 399.047 212.368C395.879 218.843 394.295 226.282 394.295 234.686C394.295 242.952 395.879 250.46 399.047 257.21C402.354 263.823 406.831 269.058 412.479 272.915C418.128 276.635 424.602 278.494 431.904 278.494ZM610.537 135.083C612.327 135.083 613.774 135.703 614.876 136.943C616.116 138.045 616.736 139.492 616.736 141.283V281.801C616.736 283.454 616.116 284.9 614.876 286.14C613.636 287.38 612.19 288 610.537 288C608.746 288 607.23 287.38 605.99 286.14C604.888 284.9 604.337 283.454 604.337 281.801V257.21L607.85 254.317C607.85 258.174 606.817 262.238 604.75 266.509C602.684 270.642 599.722 274.499 595.865 278.081C592.145 281.663 587.737 284.556 582.64 286.76C577.68 288.964 572.307 290.066 566.521 290.066C557.291 290.066 548.957 287.656 541.517 282.834C534.216 278.012 528.43 271.468 524.159 263.203C519.889 254.937 517.753 245.5 517.753 234.892C517.753 224.422 519.889 215.055 524.159 206.789C528.43 198.385 534.216 191.842 541.517 187.158C548.819 182.336 557.085 179.925 566.315 179.925C571.963 179.925 577.336 180.958 582.433 183.025C587.53 185.091 592.007 187.915 595.865 191.497C599.86 195.079 602.96 199.212 605.164 203.896C607.506 208.442 608.677 213.195 608.677 218.154L604.337 215.055V141.283C604.337 139.629 604.888 138.183 605.99 136.943C607.23 135.703 608.746 135.083 610.537 135.083ZM567.555 278.494C574.994 278.494 581.469 276.635 586.979 272.915C592.627 269.058 597.036 263.892 600.204 257.417C603.511 250.804 605.164 243.296 605.164 234.892C605.164 226.627 603.511 219.256 600.204 212.782C597.036 206.169 592.627 201.003 586.979 197.283C581.331 193.426 574.856 191.497 567.555 191.497C560.391 191.497 553.916 193.426 548.13 197.283C542.482 201.003 538.004 206.169 534.698 212.782C531.53 219.256 529.945 226.627 529.945 234.892C529.945 243.158 531.53 250.597 534.698 257.21C538.004 263.823 542.482 269.058 548.13 272.915C553.916 276.635 560.391 278.494 567.555 278.494ZM757.966 235.099C757.966 245.569 755.693 255.006 751.147 263.409C746.6 271.675 740.401 278.219 732.549 283.041C724.696 287.724 715.742 290.066 705.685 290.066C695.904 290.066 687.018 287.724 679.028 283.041C671.175 278.219 664.907 271.675 660.223 263.409C655.677 255.006 653.404 245.569 653.404 235.099C653.404 224.491 655.677 215.055 660.223 206.789C664.907 198.523 671.175 191.979 679.028 187.158C687.018 182.336 695.904 179.925 705.685 179.925C715.742 179.925 724.696 182.336 732.549 187.158C740.401 191.979 746.6 198.523 751.147 206.789C755.693 215.055 757.966 224.491 757.966 235.099ZM745.567 235.099C745.567 226.696 743.845 219.256 740.401 212.782C736.957 206.169 732.204 201.003 726.143 197.283C720.219 193.426 713.4 191.497 705.685 191.497C698.246 191.497 691.495 193.426 685.434 197.283C679.372 201.003 674.55 206.169 670.969 212.782C667.525 219.256 665.803 226.696 665.803 235.099C665.803 243.503 667.525 250.942 670.969 257.417C674.55 263.892 679.372 269.058 685.434 272.915C691.495 276.635 698.246 278.494 705.685 278.494C713.4 278.494 720.219 276.635 726.143 272.915C732.204 269.058 736.957 263.892 740.401 257.417C743.845 250.942 745.567 243.503 745.567 235.099ZM920.081 180.132C921.597 180.132 922.975 180.683 924.214 181.785C925.592 182.887 926.281 184.402 926.281 186.331C926.281 186.744 926.212 187.227 926.074 187.778C925.936 188.329 925.799 188.742 925.661 189.017L893.838 284.074C893.287 285.314 892.391 286.347 891.151 287.173C890.049 287.862 888.878 288.138 887.638 288C885.159 287.862 883.299 286.553 882.059 284.074L852.922 215.468L856.642 216.294L830.811 284.074C829.709 286.553 827.849 287.862 825.232 288C823.992 288.138 822.752 287.862 821.512 287.173C820.272 286.347 819.446 285.314 819.032 284.074L786.383 189.017C785.969 188.053 785.763 187.158 785.763 186.331C785.763 184.54 786.314 183.094 787.416 181.992C788.656 180.752 790.24 180.132 792.169 180.132C793.409 180.132 794.511 180.476 795.475 181.165C796.577 181.854 797.335 182.887 797.748 184.265L827.092 272.295L823.165 272.088L849.822 204.929C850.925 202.312 852.853 201.003 855.608 201.003C856.986 201.003 858.157 201.347 859.121 202.036C860.086 202.725 860.843 203.689 861.395 204.929L889.705 272.295L885.159 272.502L914.295 184.265C915.122 181.509 917.051 180.132 920.081 180.132Z" fill="#FCFBF2"/>
<path d="M211.736 329.009C204.258 329.009 219.754 334.764 221.779 330.715C222.746 328.781 211.163 326.611 209.178 327.493C207.113 328.411 204.515 330.83 207.046 332.799C208.893 334.235 213.861 333.273 216.189 333.273C219.137 333.273 219.41 332.115 219.41 329.436C219.41 327.471 215.758 328.28 214.294 327.304" stroke="#FAFAFA" stroke-opacity="0.95" stroke-width="10" stroke-linecap="round"/>
<path d="M270.57 324.746C266.694 324.746 267.357 328.157 271.044 328.157C274.335 328.157 278.726 329.201 277.344 324.367C275.446 317.722 260.663 329.009 270.57 329.009" stroke="#FAFAFA" stroke-opacity="0.9" stroke-width="10" stroke-linecap="round"/>
<path d="M266.034 296.812C263 296.812 265.356 298.49 265.713 297.776" stroke="#FAFAFA" stroke-opacity="0.85" stroke-width="8" stroke-linecap="round"/>
<path d="M300.074 297.133C297.42 297.133 300.717 299.757 300.717 297.455" stroke="#FAFAFA" stroke-opacity="0.8" stroke-width="8" stroke-linecap="round"/>
<path d="M295.257 277.544C295.257 278.624 296.365 277.865 295.257 277.865" stroke="#FAFAFA" stroke-opacity="0.75" stroke-width="6" stroke-linecap="round"/>
<path d="M319.984 278.508V278.829" stroke="#FAFAFA" stroke-opacity="0.7" stroke-width="6" stroke-linecap="round"/>
<path d="M313.562 263.414V263.736" stroke="#FAFAFA" stroke-opacity="0.65" stroke-width="4" stroke-linecap="round"/>
<path d="M337.005 263.736H337.326" stroke="#FAFAFA" stroke-width="4" stroke-linecap="round"/>
<path d="M329.94 248H330.582" stroke="#FAFAFA" stroke-opacity="0.6" stroke-width="2" stroke-linecap="round"/>
<path d="M496.449 55.1701C500.194 55.1701 501.455 49.1673 503.677 46.9456C505.91 44.7117 506.418 42.2633 506.418 39.2196" stroke="#FCFBF2" stroke-width="3" stroke-linecap="round"/>
<rect x="467" y="23" width="62" height="47" fill="#1A1A1A"/>
<path d="M216.13 371.233C214.364 371.233 214.348 371.496 214.417 373.28C214.485 375.064 218.513 374.25 219.32 373.59C222.017 371.383 217.341 367.452 215.059 369.734C213.352 371.441 212.427 375.936 216.345 375.065C218.782 374.524 224.1 371.9 220.201 369.734C219.362 369.268 212.318 369.21 212.274 369.948C212.088 373.112 214.442 375.089 217.511 375.089C220.932 375.089 222.754 372.634 222.557 369.091C222.435 366.891 217.597 366.949 216.13 366.949" stroke="#FAFAFA" stroke-width="12" stroke-linecap="round"/>
<path d="M216.987 366.949C214.56 366.949 211.622 366.288 209.942 368.448C208.853 369.848 209.006 372.726 209.799 374.232C211.109 376.721 214.659 377.66 217.225 377.66C220.512 377.66 221.889 376.718 222.557 373.375" stroke="#FAFAFA" stroke-opacity="0.97" stroke-width="12" stroke-linecap="round"/>
<path d="M154.006 362.664C149.049 362.664 141.925 360.954 140.486 367.472C139.655 371.237 141.945 374.118 145.508 375.28C149.393 376.546 156.715 377.916 159.457 373.804C163.79 367.304 154.915 364.378 150.007 364.378C148.186 364.378 148.153 364.297 147.579 366.092C147.191 367.304 146.651 369.448 147.579 370.376" stroke="#FAFAFA" stroke-width="12" stroke-linecap="round"/>
</svg>
